<svg width="18" height="10" viewBox="0 0 18 10" fill="none" xmlns="http://www.w3.org/2000/svg">
<rect width="18" height="10" fill="#1E1E1E"/>
<g clip-path="url(#clip0_0_1)">
<rect width="1200" height="7696" transform="translate(-1043 -5433)" fill="white"/>
<path d="M-1043 -299H157V893H-1043V-299Z" fill="black"/>
<path d="M-933 -39C-933 -43.4183 -929.418 -47 -925 -47H39C43.4183 -47 47 -43.4183 47 -39V49C47 53.4183 43.4183 57 39 57H-925C-929.418 57 -933 53.4183 -933 49V-39Z" fill="#262626"/>
<path fill-rule="evenodd" clip-rule="evenodd" d="M0.400024 1.75838L2.01653 0L9.15728 6.67983L15.825 0.0267327L17.4968 1.73165L9.21035 10L0.400024 1.75838Z" fill="white"/>
</g>
<defs>
<clipPath id="clip0_0_1">
<rect width="1200" height="7696" fill="white" transform="translate(-1043 -5433)"/>
</clipPath>
</defs>
</svg>
